<?xml version="1.0" standalone="no"?>
<!DOCTYPE svg PUBLIC "-//W3C//DTD SVG 20010904//EN"
 "http://www.w3.org/TR/2001/REC-SVG-20010904/DTD/svg10.dtd">
<svg version="1.0" xmlns="http://www.w3.org/2000/svg"
 width="225.000000pt" height="225.000000pt" viewBox="0 0 225.000000 225.000000"
 preserveAspectRatio="xMidYMid meet">

<g transform="translate(0.000000,225.000000) scale(0.100000,-0.100000)"
fill="#000000" stroke="none">
<path d="M309 1761 l-29 -30 2 -616 3 -617 24 -19 c22 -18 50 -19 821 -19
l799 0 20 26 c21 26 21 35 21 630 0 421 -3 610 -11 627 -6 14 -22 30 -36 36
-17 8 -254 11 -804 11 l-781 0 -29 -29z m1599 -35 c9 -5 12 -141 12 -596 0
-323 -3 -595 -6 -604 -6 -14 -84 -16 -790 -16 l-784 0 0 610 0 609 88 3 c191
6 1468 2 1480 -6z"/>
<path d="M462 1588 c-9 -9 -12 -127 -12 -470 0 -442 1 -458 19 -468 13 -6 238
-10 660 -10 628 0 641 0 661 20 19 19 20 33 20 458 0 380 -2 440 -16 460 l-15
22 -653 0 c-494 0 -655 -3 -664 -12z m1288 -410 c0 -353 -1 -370 -17 -356 -10
9 -99 88 -198 177 l-179 161 -86 -85 -86 -86 -155 170 c-84 93 -158 170 -163
170 -5 1 -77 -63 -160 -141 -83 -78 -163 -153 -178 -167 l-28 -25 0 277 0 277
625 0 625 0 0 -372z m-749 -73 c74 -80 134 -149 134 -154 0 -5 -53 -63 -117
-130 l-118 -121 -200 0 -200 0 0 109 0 109 178 165 c97 92 180 166 183 167 4
0 67 -65 140 -145z m555 -201 c106 -97 194 -182 194 -190 0 -12 -60 -14 -387
-14 l-388 0 190 190 c104 105 191 190 193 190 2 0 91 -79 198 -176z"/>
<path d="M1457 1481 c-40 -38 -42 -42 -42 -98 0 -66 20 -103 72 -128 98 -48
203 17 203 125 0 82 -59 140 -143 140 -42 0 -53 -5 -90 -39z m142 -31 c31 -16
46 -65 31 -100 -15 -36 -62 -64 -94 -56 -94 23 -85 166 11 166 19 0 42 -4 52
-10z"/>
</g>
</svg>
